<!DOCTYPE svg PUBLIC "-//W3C//DTD SVG 1.1//EN" "http://www.w3.org/Graphics/SVG/1.1/DTD/svg11.dtd">
<!-- Uploaded to: SVG Repo, www.svgrepo.com, Transformed by: SVG Repo Mixer Tools -->
<svg width="161px" height="161px" viewBox="-1.6 -1.6 19.20 19.20" fill="none" xmlns="http://www.w3.org/2000/svg" transform="matrix(1, 0, 0, 1, 0, 0)rotate(0)" stroke="#0e69fb" stroke-width="0.00016">
<g id="SVGRepo_bgCarrier" stroke-width="0" transform="translate(0,0), scale(1)">
<path transform="translate(-1.6, -1.6), scale(0.6)" d="M16,29.732859450081982C19.228089376141654,29.497132647277482,22.253589879356444,28.47607676847203,24.870942125400042,26.571977147640816C27.681777216853053,24.527120541142775,30.935415392472112,22.145459407426586,31.194279292742365,18.679161391730414C31.448158672268605,15.279608234417877,27.889222587039164,13.070332029004316,26.095754789980088,10.171213254332546C24.390024673159907,7.4139213674609525,23.83330405206797,3.825013170868087,21.0142942010734,2.223339908048583C17.920737773934434,0.46567786418456447,14.078095152790487,0.32330806648128374,10.693326803109965,1.420035219119553C7.217361791911282,2.5463117661576966,4.37414559776871,5.068850164367879,2.5183500172908833,8.216365753362568C0.647994023111071,11.38857648097668,-0.15083531921778348,15.108475169874758,0.48376227406563466,18.73593135016878C1.1190419065247832,22.367286169930388,2.9632739022432837,25.820449352259104,5.970979673316945,27.952121004524876C8.82722289730011,29.97644558144906,12.508437684349712,29.987826003221436,16,29.732859450081982" fill="#c2f8ff" strokewidth="0"/>
</g>
<g id="SVGRepo_tracerCarrier" stroke-linecap="round" stroke-linejoin="round" stroke="#CCCCCC" stroke-width="0.064"/>
<g id="SVGRepo_iconCarrier"> <path fill-rule="evenodd" clip-rule="evenodd" d="M6.42436 0H9.57565L14.995 16H11.8276L10.8115 13H5.18855L4.17242 16H1.005L6.42436 0ZM6.20468 10H9.79533L8 4.69952L6.20468 10Z" fill="#00574d"/> </g>
</svg>